<svg id="visual" viewBox="0 0 900 600" width="900" height="600" xmlns="http://www.w3.org/2000/svg" xmlns:xlink="http://www.w3.org/1999/xlink" version="1.1"><rect x="0" y="0" width="900" height="600" fill="#ffffff"></rect><path d="M0 477L16.7 475C33.3 473 66.7 469 100 469.5C133.3 470 166.7 475 200 472.7C233.3 470.3 266.7 460.7 300 460C333.3 459.3 366.7 467.7 400 471C433.3 474.3 466.7 472.7 500 473.7C533.3 474.7 566.7 478.3 600 480.3C633.3 482.3 666.7 482.7 700 479C733.3 475.3 766.7 467.7 800 465.3C833.3 463 866.7 466 883.3 467.5L900 469L900 601L883.3 601C866.7 601 833.3 601 800 601C766.7 601 733.3 601 700 601C666.7 601 633.3 601 600 601C566.7 601 533.3 601 500 601C466.7 601 433.3 601 400 601C366.7 601 333.3 601 300 601C266.7 601 233.3 601 200 601C166.7 601 133.3 601 100 601C66.7 601 33.3 601 16.7 601L0 601Z" fill="#ff0066"></path><path d="M0 480L16.7 481.2C33.3 482.3 66.7 484.7 100 487.7C133.3 490.7 166.7 494.3 200 491.7C233.3 489 266.7 480 300 479.2C333.3 478.3 366.7 485.7 400 485.5C433.3 485.3 466.7 477.7 500 474.5C533.3 471.3 566.7 472.7 600 474.5C633.3 476.3 666.7 478.7 700 479.8C733.3 481 766.7 481 800 483.2C833.3 485.3 866.7 489.7 883.3 491.8L900 494L900 601L883.3 601C866.7 601 833.3 601 800 601C766.7 601 733.3 601 700 601C666.7 601 633.3 601 600 601C566.7 601 533.3 601 500 601C466.7 601 433.3 601 400 601C366.7 601 333.3 601 300 601C266.7 601 233.3 601 200 601C166.7 601 133.3 601 100 601C66.7 601 33.3 601 16.7 601L0 601Z" fill="#eb1268"></path><path d="M0 491L16.7 490C33.3 489 66.7 487 100 487.2C133.3 487.3 166.7 489.7 200 492.7C233.3 495.7 266.7 499.3 300 498.8C333.3 498.3 366.7 493.7 400 491.8C433.3 490 466.7 491 500 490.3C533.3 489.7 566.7 487.3 600 491C633.3 494.7 666.7 504.3 700 507.3C733.3 510.3 766.7 506.7 800 502.7C833.3 498.7 866.7 494.3 883.3 492.2L900 490L900 601L883.3 601C866.7 601 833.3 601 800 601C766.7 601 733.3 601 700 601C666.7 601 633.3 601 600 601C566.7 601 533.3 601 500 601C466.7 601 433.3 601 400 601C366.7 601 333.3 601 300 601C266.7 601 233.3 601 200 601C166.7 601 133.3 601 100 601C66.7 601 33.3 601 16.7 601L0 601Z" fill="#d71d69"></path><path d="M0 521L16.7 519.8C33.3 518.7 66.7 516.3 100 517.2C133.3 518 166.7 522 200 521.2C233.3 520.3 266.7 514.7 300 515.2C333.3 515.7 366.7 522.3 400 522.7C433.3 523 466.7 517 500 512.7C533.3 508.3 566.7 505.7 600 506.3C633.3 507 666.7 511 700 513.2C733.3 515.3 766.7 515.7 800 515.3C833.3 515 866.7 514 883.3 513.5L900 513L900 601L883.3 601C866.7 601 833.3 601 800 601C766.7 601 733.3 601 700 601C666.7 601 633.3 601 600 601C566.7 601 533.3 601 500 601C466.7 601 433.3 601 400 601C366.7 601 333.3 601 300 601C266.7 601 233.3 601 200 601C166.7 601 133.3 601 100 601C66.7 601 33.3 601 16.7 601L0 601Z" fill="#c62368"></path><path d="M0 534L16.7 534.8C33.3 535.7 66.7 537.3 100 535.7C133.3 534 166.7 529 200 527.3C233.3 525.7 266.7 527.3 300 530.3C333.3 533.3 366.7 537.7 400 539.7C433.3 541.7 466.7 541.3 500 541.2C533.3 541 566.7 541 600 541.3C633.3 541.7 666.7 542.3 700 541.8C733.3 541.3 766.7 539.7 800 536.7C833.3 533.7 866.7 529.3 883.3 527.2L900 525L900 601L883.3 601C866.7 601 833.3 601 800 601C766.7 601 733.3 601 700 601C666.7 601 633.3 601 600 601C566.7 601 533.3 601 500 601C466.7 601 433.3 601 400 601C366.7 601 333.3 601 300 601C266.7 601 233.3 601 200 601C166.7 601 133.3 601 100 601C66.7 601 33.3 601 16.7 601L0 601Z" fill="#c62368"></path><path d="M0 554L16.7 551.7C33.3 549.3 66.7 544.7 100 541.7C133.3 538.7 166.7 537.3 200 537.7C233.3 538 266.7 540 300 542C333.3 544 366.7 546 400 548C433.3 550 466.7 552 500 553C533.3 554 566.7 554 600 552.8C633.3 551.7 666.7 549.3 700 547.5C733.3 545.7 766.7 544.3 800 545C833.3 545.7 866.7 548.3 883.3 549.7L900 551L900 601L883.3 601C866.7 601 833.3 601 800 601C766.7 601 733.3 601 700 601C666.7 601 633.3 601 600 601C566.7 601 533.3 601 500 601C466.7 601 433.3 601 400 601C366.7 601 333.3 601 300 601C266.7 601 233.3 601 200 601C166.7 601 133.3 601 100 601C66.7 601 33.3 601 16.7 601L0 601Z" fill="#d71d69"></path><path d="M0 558L16.7 559.7C33.3 561.3 66.7 564.7 100 564C133.3 563.3 166.7 558.7 200 557.7C233.3 556.7 266.7 559.3 300 562.2C333.3 565 366.7 568 400 567.3C433.3 566.7 466.7 562.3 500 561.2C533.3 560 566.7 562 600 562.8C633.3 563.7 666.7 563.3 700 564.2C733.3 565 766.7 567 800 568.3C833.3 569.7 866.7 570.3 883.3 570.7L900 571L900 601L883.3 601C866.7 601 833.3 601 800 601C766.7 601 733.3 601 700 601C666.7 601 633.3 601 600 601C566.7 601 533.3 601 500 601C466.7 601 433.3 601 400 601C366.7 601 333.3 601 300 601C266.7 601 233.3 601 200 601C166.7 601 133.3 601 100 601C66.7 601 33.3 601 16.7 601L0 601Z" fill="#eb1268"></path><path d="M0 577L16.7 577.2C33.3 577.3 66.7 577.7 100 578C133.3 578.3 166.7 578.7 200 578.8C233.3 579 266.7 579 300 579.5C333.3 580 366.7 581 400 580.5C433.3 580 466.7 578 500 576.5C533.3 575 566.7 574 600 574C633.3 574 666.7 575 700 575.3C733.3 575.7 766.7 575.3 800 576.2C833.3 577 866.7 579 883.3 580L900 581L900 601L883.3 601C866.7 601 833.3 601 800 601C766.7 601 733.3 601 700 601C666.7 601 633.3 601 600 601C566.7 601 533.3 601 500 601C466.7 601 433.3 601 400 601C366.7 601 333.3 601 300 601C266.7 601 233.3 601 200 601C166.7 601 133.3 601 100 601C66.7 601 33.3 601 16.7 601L0 601Z" fill="#ff0066"></path></svg>