<svg id="visual" viewBox="0 0 900 600" width="900" height="600" xmlns="http://www.w3.org/2000/svg" xmlns:xlink="http://www.w3.org/1999/xlink" version="1.1"><rect x="0" y="0" width="900" height="600" fill="#ffffff"></rect><path d="M0 464L21.5 469.7C43 475.3 86 486.7 128.8 490.8C171.7 495 214.3 492 257.2 480.8C300 469.7 343 450.3 385.8 444.2C428.7 438 471.3 445 514.2 451.2C557 457.3 600 462.7 642.8 471.2C685.7 479.7 728.3 491.3 771.2 498.3C814 505.3 857 507.7 878.5 508.8L900 510L900 601L878.5 601C857 601 814 601 771.2 601C728.3 601 685.7 601 642.8 601C600 601 557 601 514.2 601C471.3 601 428.7 601 385.8 601C343 601 300 601 257.2 601C214.3 601 171.7 601 128.8 601C86 601 43 601 21.5 601L0 601Z" fill="#FF0066" stroke-linecap="round" stroke-linejoin="miter"></path></svg>